<svg width="190" height="223" viewBox="0 0 190 223" fill="none" xmlns="http://www.w3.org/2000/svg">
<g opacity="0.18" filter="url(#filter0_dd_1_437)">
<path fill-rule="evenodd" clip-rule="evenodd" d="M96.2425 0.0418707C124.281 -1.19004 146.824 24.9615 163.699 52.0794C179.876 78.0734 190.325 109.768 184.252 141.466C178.201 173.046 158.295 198.544 133.361 210.415C110.424 221.334 86.2948 210.845 63.7296 198.845C39.6945 186.063 11.6046 173.109 5.25502 142.289C-1.17495 111.077 18.3901 83.1874 34.6619 57.749C51.3803 31.612 68.9437 1.24128 96.2425 0.0418707Z" fill="white"/>
<path d="M96.2644 0.541389C110.111 -0.0669752 122.636 6.08237 133.829 15.8069C145.024 25.533 154.848 38.8022 163.275 52.3435L163.699 52.0794L163.275 52.3436C179.413 78.2749 189.802 109.841 183.761 141.372C177.738 172.807 157.927 198.165 133.146 209.963C110.463 220.762 86.5548 210.417 63.9644 198.403C62.4529 197.6 60.9267 196.796 59.3919 195.987C48.7009 190.356 37.5949 184.507 28.1733 176.941C17.4154 168.303 8.88968 157.453 5.74474 142.188C2.55763 126.717 5.80677 112.051 11.9037 98.0535C17.304 85.6555 24.9209 73.8191 32.2485 62.4321C33.2001 60.9534 34.1468 59.4823 35.0831 58.0184C36.1086 56.4152 37.1366 54.7971 38.1693 53.1717C45.5674 41.5275 53.2056 29.5054 61.8565 19.878C71.7114 8.91069 82.8105 1.13251 96.2644 0.541389Z" stroke="black"/>
<path d="M96.2644 0.541389C110.111 -0.0669752 122.636 6.08237 133.829 15.8069C145.024 25.533 154.848 38.8022 163.275 52.3435L163.699 52.0794L163.275 52.3436C179.413 78.2749 189.802 109.841 183.761 141.372C177.738 172.807 157.927 198.165 133.146 209.963C110.463 220.762 86.5548 210.417 63.9644 198.403C62.4529 197.6 60.9267 196.796 59.3919 195.987C48.7009 190.356 37.5949 184.507 28.1733 176.941C17.4154 168.303 8.88968 157.453 5.74474 142.188C2.55763 126.717 5.80677 112.051 11.9037 98.0535C17.304 85.6555 24.9209 73.8191 32.2485 62.4321C33.2001 60.9534 34.1468 59.4823 35.0831 58.0184C36.1086 56.4152 37.1366 54.7971 38.1693 53.1717C45.5674 41.5275 53.2056 29.5054 61.8565 19.878C71.7114 8.91069 82.8105 1.13251 96.2644 0.541389Z" stroke="black" stroke-opacity="0.2"/>
</g>
<defs>
<filter id="filter0_dd_1_437" x="0" y="0" width="190" height="223" filterUnits="userSpaceOnUse" color-interpolation-filters="sRGB">
<feFlood flood-opacity="0" result="BackgroundImageFix"/>
<feColorMatrix in="SourceAlpha" type="matrix" values="0 0 0 0 0 0 0 0 0 0 0 0 0 0 0 0 0 0 127 0" result="hardAlpha"/>
<feOffset dy="4"/>
<feGaussianBlur stdDeviation="2"/>
<feComposite in2="hardAlpha" operator="out"/>
<feColorMatrix type="matrix" values="0 0 0 0 0 0 0 0 0 0 0 0 0 0 0 0 0 0 0.25 0"/>
<feBlend mode="normal" in2="BackgroundImageFix" result="effect1_dropShadow_1_437"/>
<feColorMatrix in="SourceAlpha" type="matrix" values="0 0 0 0 0 0 0 0 0 0 0 0 0 0 0 0 0 0 127 0" result="hardAlpha"/>
<feOffset dy="4"/>
<feGaussianBlur stdDeviation="2"/>
<feComposite in2="hardAlpha" operator="out"/>
<feColorMatrix type="matrix" values="0 0 0 0 0 0 0 0 0 0 0 0 0 0 0 0 0 0 0.25 0"/>
<feBlend mode="normal" in2="effect1_dropShadow_1_437" result="effect2_dropShadow_1_437"/>
<feBlend mode="normal" in="SourceGraphic" in2="effect2_dropShadow_1_437" result="shape"/>
</filter>
</defs>
</svg>
