<svg width="172" height="172" viewBox="0 0 172 172" fill="none" xmlns="http://www.w3.org/2000/svg">
<rect width="172" height="172" fill="#E5E5E5"/>
<g clip-path="url(#clip0_0_1)">
<rect width="1440" height="10727" transform="translate(-1050 -6624)" fill="white"/>
<g filter="url(#filter0_d_0_1)">
<path d="M-108 -45C-108 -51.6274 -102.627 -57 -96 -57H268C274.627 -57 280 -51.6274 280 -45V381C280 387.627 274.627 393 268 393H-96C-102.627 393 -108 387.627 -108 381V-45Z" fill="white"/>
<path d="M-107.5 -45C-107.5 -51.3513 -102.351 -56.5 -96 -56.5H268C274.351 -56.5 279.5 -51.3513 279.5 -45V381C279.5 387.351 274.351 392.5 268 392.5H-96C-102.351 392.5 -107.5 387.351 -107.5 381V-45Z" stroke="#F0ECE8"/>
</g>
<g clip-path="url(#clip1_0_1)">
<path d="M86 172C133.496 172 172 133.496 172 86C172 38.5035 133.496 0 86 0C38.5035 0 0 38.5035 0 86C0 133.496 38.5035 172 86 172Z" fill="#FFF3E0"/>
<mask id="mask0_0_1" style="mask-type:alpha" maskUnits="userSpaceOnUse" x="0" y="0" width="172" height="172">
<path d="M86 172C133.496 172 172 133.496 172 86C172 38.5035 133.496 0 86 0C38.5035 0 0 38.5035 0 86C0 133.496 38.5035 172 86 172Z" fill="#F0ECE8"/>
</mask>
<g mask="url(#mask0_0_1)">
<path d="M124.964 128.835H46.4479C41.6497 128.835 37.7239 124.909 37.7239 120.111V67.7665C37.7239 62.9683 41.6497 59.0425 46.4479 59.0425H124.964C129.762 59.0425 133.688 62.9683 133.688 67.7665V120.111C133.688 124.909 129.762 128.835 124.964 128.835Z" fill="#FF9C08"/>
<path d="M124.964 131.452H46.4479C40.1666 131.452 35.1067 126.392 35.1067 120.11V67.7665C35.1067 61.4852 40.1666 56.4253 46.4479 56.4253H124.964C131.245 56.4253 136.305 61.4852 136.305 67.7665V120.11C136.305 126.392 131.245 131.452 124.964 131.452ZM46.4479 61.6597C43.0455 61.6597 40.3411 64.3641 40.3411 67.7665V120.11C40.3411 123.513 43.0455 126.217 46.4479 126.217H124.964C128.366 126.217 131.071 123.513 131.071 120.11V67.7665C131.071 64.3641 128.366 61.6597 124.964 61.6597H46.4479Z" fill="#090909"/>
<path d="M103.154 61.6596C101.671 61.6596 100.537 60.5255 100.537 59.0424C100.537 51.3653 94.2553 45.084 86.5782 45.084H84.8333C80.3841 45.084 76.3711 47.0905 73.6666 50.6674C72.7942 51.8015 71.1367 52.0632 70.0025 51.1908C68.8684 50.3184 68.6067 48.6609 69.4791 47.5267C73.1432 42.6413 78.7265 39.8496 84.8333 39.8496H86.5782C97.1342 39.8496 105.771 48.4864 105.771 59.0424C105.771 60.5255 104.637 61.6596 103.154 61.6596Z" fill="#090909"/>
<path d="M101.409 87.8319H91.8127V78.2354C91.8127 76.7524 90.6786 75.6182 89.1955 75.6182H82.2163C80.7332 75.6182 79.5991 76.7524 79.5991 78.2354V87.8319H70.0027C68.5196 87.8319 67.3855 88.966 67.3855 90.4491V97.4283C67.3855 98.9114 68.5196 100.045 70.0027 100.045H79.5991V109.642C79.5991 111.125 80.7332 112.259 82.2163 112.259H89.1955C90.6786 112.259 91.8127 111.125 91.8127 109.642V100.045H101.409C102.892 100.045 104.026 98.9114 104.026 97.4283V90.4491C104.026 88.966 102.892 87.8319 101.409 87.8319Z" fill="white"/>
</g>
</g>
</g>
<defs>
<filter id="filter0_d_0_1" x="-120" y="-67" width="412" height="474" filterUnits="userSpaceOnUse" color-interpolation-filters="sRGB">
<feFlood flood-opacity="0" result="BackgroundImageFix"/>
<feColorMatrix in="SourceAlpha" type="matrix" values="0 0 0 0 0 0 0 0 0 0 0 0 0 0 0 0 0 0 127 0" result="hardAlpha"/>
<feOffset dy="2"/>
<feGaussianBlur stdDeviation="6"/>
<feColorMatrix type="matrix" values="0 0 0 0 0.168627 0 0 0 0 0.168627 0 0 0 0 0.168627 0 0 0 0.06 0"/>
<feBlend mode="normal" in2="BackgroundImageFix" result="effect1_dropShadow_0_1"/>
<feBlend mode="normal" in="SourceGraphic" in2="effect1_dropShadow_0_1" result="shape"/>
</filter>
<clipPath id="clip0_0_1">
<rect width="1440" height="10727" fill="white" transform="translate(-1050 -6624)"/>
</clipPath>
<clipPath id="clip1_0_1">
<rect width="172" height="172" fill="white"/>
</clipPath>
</defs>
</svg>
